<svg width="28" height="28" viewBox="0 0 28 28" fill="none" xmlns="http://www.w3.org/2000/svg">
    <path fill-rule="evenodd" clip-rule="evenodd" d="M16.6704 21.6652C17.1099 21.2188 17.1099 20.495 16.6704 20.0486L11.353 14.6463C11.0529 14.3415 10.9029 14.1891 10.9029 13.9997C10.9029 13.8103 11.0529 13.6578 11.353 13.353L16.6704 7.95144C17.1098 7.50506 17.1099 6.78129 16.6705 6.33485C16.2311 5.88842 15.5187 5.88838 15.0793 6.33476L8.3296 13.1913C8.11857 13.4056 8.00001 13.6964 8 13.9996C7.99999 14.3028 8.11854 14.5935 8.32955 14.8079L15.0792 21.6652C15.5186 22.1116 16.231 22.1116 16.6704 21.6652Z" fill="currentColor"/>
</svg>
