<svg width="16" height="16" viewBox="0 0 16 16" fill="none" xmlns="http://www.w3.org/2000/svg">
<path fill-rule="evenodd" clip-rule="evenodd" d="M8 15C11.866 15 15 11.866 15 8C15 4.13401 11.866 1 8 1C4.13401 1 1 4.13401 1 8C1 11.866 4.13401 15 8 15ZM11.9763 5.38704C12.2596 5.65011 12.276 6.09302 12.013 6.37632L7.46296 11.2763C7.33607 11.413 7.15992 11.4933 6.97356 11.4996C6.78719 11.5059 6.60603 11.4375 6.47024 11.3097L4.02024 9.00386C3.73872 8.7389 3.7253 8.29588 3.99026 8.01436C4.25522 7.73284 4.69823 7.71942 4.97976 7.98438L6.91657 9.80727L10.987 5.42368C11.2501 5.14039 11.693 5.12398 11.9763 5.38704Z" fill="currentColor"/>
</svg>
