<svg width="32" height="32" viewBox="0 0 32 32" fill="none" xmlns="http://www.w3.org/2000/svg">
    <path d="M7.51326 7.51311C7.12274 7.90363 7.12274 8.5368 7.51326 8.92732L14.5843 15.9984L7.51311 23.0696C7.12258 23.4601 7.12258 24.0933 7.51311 24.4838C7.90363 24.8743 8.5368 24.8743 8.92732 24.4838L15.9985 17.4126L23.0696 24.4837C23.4601 24.8742 24.0933 24.8742 24.4838 24.4837C24.8743 24.0931 24.8743 23.46 24.4838 23.0695L17.4127 15.9984L24.4837 8.92746C24.8742 8.53694 24.8742 7.90377 24.4837 7.51325C24.0931 7.12272 23.46 7.12272 23.0695 7.51325L15.9985 14.5842L8.92747 7.51311C8.53695 7.12258 7.90378 7.12258 7.51326 7.51311Z" fill="currentColor"/>
</svg>
