<svg width="110" height="110" viewBox="0 0 110 110" fill="none" xmlns="http://www.w3.org/2000/svg">
<path opacity="0.2" fill-rule="evenodd" clip-rule="evenodd" d="M25.5552 72.0004C34.9441 88.2623 55.7381 93.8341 72.0001 84.4453C88.262 75.0564 93.8338 54.2623 84.445 38.0004C75.0561 21.7384 54.262 16.1667 38.0001 25.5555C21.7381 34.9444 16.1664 55.7384 25.5552 72.0004ZM20.3591 75.0004C31.4048 94.1321 55.8684 100.687 75.0001 89.6414C94.1318 78.5957 100.687 54.1321 89.6411 35.0004C78.5954 15.8687 54.1318 9.31368 35.0001 20.3594C15.8684 31.4051 9.31338 55.8687 20.3591 75.0004Z" fill="#858585"/>
<path d="M45.4232 90.7419C44.9947 92.3411 43.3461 93.3009 41.7835 92.7538C36.1552 90.7835 31.0259 87.5749 26.7815 83.3502C21.8274 78.419 18.252 72.2757 16.4115 65.5323C14.5711 58.789 14.5298 51.6811 16.2919 44.9168C18.054 38.1526 21.5579 31.9682 26.4545 26.9799C31.3511 21.9915 37.4694 18.3734 44.1998 16.4861C50.9301 14.5987 58.0376 14.508 64.8139 16.223C71.5903 17.9379 77.7989 21.3987 82.8212 26.2605C87.124 30.4256 90.4272 35.4945 92.5017 41.0853C93.0776 42.6374 92.1486 44.3036 90.5577 44.7617C88.9668 45.2198 87.3182 44.2951 86.7218 42.7507C84.9506 38.1641 82.2011 34.0043 78.6514 30.5681C74.3818 26.435 69.1037 23.4929 63.343 22.035C57.5823 20.5771 51.5402 20.6542 45.8185 22.2587C40.0969 23.8631 34.8957 26.939 30.733 31.1796C26.5703 35.4203 23.5916 40.6778 22.0936 46.4282C20.5956 52.1786 20.6306 58.2212 22.1953 63.9538C23.7599 69.6864 26.7994 74.909 31.011 79.1011C34.5125 82.5864 38.7226 85.2583 43.3414 86.944C44.8966 87.5116 45.8517 89.1428 45.4232 90.7419Z" fill="currentColor"/>
</svg>
