<svg width="16" height="16" viewBox="0 0 16 16" fill="none" xmlns="http://www.w3.org/2000/svg">
<path fill-rule="evenodd" clip-rule="evenodd" d="M15 8C15 11.866 11.866 15 8 15C4.13401 15 1 11.866 1 8C1 4.13401 4.13401 1 8 1C11.866 1 15 4.13401 15 8ZM4.46255 9.05C5.04245 9.05 5.51255 8.5799 5.51255 8C5.51255 7.4201 5.04245 6.95 4.46255 6.95C3.88266 6.95 3.41255 7.4201 3.41255 8C3.41255 8.5799 3.88266 9.05 4.46255 9.05ZM8 9.05C8.5799 9.05 9.05 8.5799 9.05 8C9.05 7.4201 8.5799 6.95 8 6.95C7.4201 6.95 6.95 7.4201 6.95 8C6.95 8.5799 7.4201 9.05 8 9.05ZM11.635 9.05C12.2149 9.05 12.685 8.5799 12.685 8C12.685 7.4201 12.2149 6.95 11.635 6.95C11.0551 6.95 10.585 7.4201 10.585 8C10.585 8.5799 11.0551 9.05 11.635 9.05Z" fill="currentColor"/>
</svg>
